<svg width="86" height="85" viewBox="0 0 86 85" fill="none" xmlns="http://www.w3.org/2000/svg">
<g clip-path="url(#clip0_1556_1)">
<path d="M85.5 46.2401C85.5 39.9393 81.5548 34.5433 76.0052 32.3907L75.5795 29.6542H79.1504C80.8155 29.6542 82.3812 29.0056 83.5589 27.8279C84.7367 26.6502 85.3853 25.0845 85.3853 23.4193C85.3853 19.9814 82.5882 17.1844 79.1504 17.1844H73.6398L73.0783 13.5747C72.5905 10.4426 70.9965 7.58232 68.5897 5.5209C66.1828 3.4593 63.1115 2.32391 59.9416 2.32391H26.0576C22.8877 2.32391 19.8164 3.4593 17.4095 5.5209C15.0027 7.58216 13.4086 10.4425 12.9209 13.5747L12.3594 17.1842H6.84831C5.18316 17.1842 3.61763 17.8329 2.43974 19.0106C1.26202 20.1883 0.613389 21.754 0.613389 23.4191C0.613389 26.8572 3.41044 29.6541 6.84831 29.6541H10.4198L9.99416 32.3909C4.44555 34.5438 0.501162 39.9395 0.501162 46.24V48.4762C0.501162 49.0347 0.532373 49.5928 0.593799 50.1354C0.671163 50.8187 1.28775 51.3098 1.97107 51.2324C2.6544 51.1551 3.14547 50.5383 3.06811 49.855C3.01714 49.4051 2.99141 48.9412 2.99141 48.476V46.2398C2.99141 39.4255 8.53454 33.8815 15.348 33.8815H70.6515C77.4658 33.8815 83.0098 39.4255 83.0098 46.2398V48.476C83.0098 51.5724 81.8793 54.4935 79.8139 56.7694C79.5715 56.7415 79.3257 56.7257 79.076 56.7257H6.92335C6.67499 56.7257 6.43028 56.7413 6.18906 56.7689C5.47452 55.9812 4.86541 55.1096 4.37732 54.1683C4.06089 53.5578 3.30933 53.3196 2.69889 53.6362C2.08845 53.9528 1.85021 54.7043 2.16681 55.3148C2.58948 56.1301 3.08787 56.9014 3.65365 57.6232C1.76737 58.744 0.5 60.801 0.5 63.1494C0.5 66.6912 3.38138 69.5728 6.92335 69.5728H8.95672V74.8793C8.95672 79.1785 12.4544 82.6763 16.7535 82.6763C21.0527 82.6763 24.5503 79.1787 24.5503 74.8793V69.5728H60.7632V74.8793C60.7632 79.1785 64.2608 82.6763 68.5602 82.6763C72.8593 82.6763 76.357 79.1787 76.357 74.8793V69.5728H79.0758C82.6176 69.5728 85.4992 66.6912 85.4992 63.1494C85.4992 60.801 84.2316 58.7438 82.3453 57.6236C84.3883 55.0229 85.4998 51.8369 85.4998 48.4765V46.2401H85.5ZM79.1505 19.6745C81.2154 19.6745 82.8952 21.3544 82.8952 23.4191C82.8952 24.4191 82.5056 25.3596 81.7983 26.0668C81.0909 26.7742 80.1506 27.1638 79.1505 27.1638H75.1922L74.0273 19.6743H79.1505V19.6745ZM6.84831 27.164C4.78339 27.164 3.10364 25.4841 3.10364 23.4193C3.10364 22.4194 3.49328 21.4789 4.20051 20.7717C4.90791 20.0643 5.84822 19.6746 6.84831 19.6746H11.9721L10.8071 27.1642H6.84831V27.164ZM45.3945 31.3918C45.5926 27.0229 49.2079 23.5291 53.625 23.5291C58.0418 23.5291 61.6574 27.0227 61.8554 31.3918H45.3945ZM68.8939 31.3918L66.2854 14.6302C65.9688 12.5944 64.7493 10.8819 62.9392 9.93212C62.3304 9.61254 61.5777 9.84712 61.2581 10.4561C60.9385 11.065 61.1731 11.8176 61.782 12.1372C62.886 12.7166 63.6306 13.7646 63.8247 15.0129L66.3736 31.3916H64.3457C64.1458 25.6493 59.4151 21.0386 53.625 21.0386C47.8348 21.0386 43.1042 25.6493 42.9043 31.3916H19.6259L22.175 15.0122C22.4736 13.0854 24.1066 11.6871 26.0579 11.6871H57.4517C58.1393 11.6871 58.6968 11.1296 58.6968 10.442C58.6968 9.75432 58.1393 9.19684 57.4517 9.19684H26.0579C22.8701 9.19684 20.2022 11.4821 19.7143 14.6301L17.1058 31.3916H15.348C14.42 31.3916 13.512 31.4781 12.6307 31.6418L15.3814 13.9577C15.7778 11.412 17.0733 9.08743 19.0293 7.41199C20.9855 5.73655 23.4813 4.814 26.0574 4.814H59.9416C62.5178 4.814 65.0137 5.73672 66.9697 7.41199C68.9257 9.08743 70.2212 11.412 70.6176 13.9575L73.3683 31.6416C72.4871 31.4779 71.5792 31.3916 70.6511 31.3916H68.8939V31.3918ZM22.0601 74.8795C22.0601 77.8055 19.6796 80.1862 16.7535 80.1862C13.8275 80.1862 11.447 77.8057 11.447 74.8795V69.5729H22.0602V74.8795H22.0601ZM73.8669 74.8795C73.8669 77.8055 71.4864 80.1862 68.5603 80.1862C65.6343 80.1862 63.2536 77.8057 63.2536 74.8795V69.5729H73.8669V74.8795ZM79.076 67.0825H6.92335C4.75451 67.0825 2.99025 65.3181 2.99025 63.1494C2.99025 60.9807 4.75451 59.2163 6.92335 59.2163H79.076C81.2447 59.2163 83.0091 60.9807 83.0091 63.1494C83.0091 65.3181 81.2448 67.0825 79.076 67.0825Z" fill="#169B6D"/>
<path d="M19.9075 49.3537V43.0282C19.9075 40.2411 17.6401 37.9738 14.8532 37.9738C12.0663 37.9738 9.79883 40.2413 9.79883 43.0282V49.3537C9.79883 52.1406 12.0663 54.408 14.8532 54.408C17.6401 54.408 19.9075 52.1406 19.9075 49.3537ZM12.2891 49.3537V43.0282C12.2891 41.6142 13.4394 40.464 14.8532 40.464C16.267 40.464 17.4173 41.6144 17.4173 43.0282V49.3537C17.4173 50.7675 16.267 51.9178 14.8532 51.9178C13.4392 51.9178 12.2891 50.7675 12.2891 49.3537Z" fill="#169B6D"/>
<path d="M76.2005 49.3537V43.0282C76.2005 40.2411 73.933 37.9738 71.1461 37.9738C68.3592 37.9738 66.0918 40.2413 66.0918 43.0282V49.3537C66.0918 52.1406 68.3592 54.408 71.1461 54.408C73.933 54.408 76.2005 52.1406 76.2005 49.3537ZM68.5819 49.3537V43.0282C68.5819 41.6142 69.7322 40.464 71.146 40.464C72.5598 40.464 73.7101 41.6144 73.7101 43.0282V49.3537C73.7101 50.7675 72.5598 51.9178 71.146 51.9178C69.7322 51.9178 68.5819 50.7675 68.5819 49.3537Z" fill="#169B6D"/>
<path d="M28.0293 44.7382H57.9704C58.6581 44.7382 59.2155 44.1807 59.2155 43.4931C59.2155 42.8054 58.6581 42.2479 57.9704 42.2479H28.0293C27.3417 42.2479 26.7842 42.8054 26.7842 43.4931C26.7842 44.1807 27.3417 44.7382 28.0293 44.7382Z" fill="#169B6D"/>
<path d="M28.0293 50.8944H57.9704C58.6581 50.8944 59.2155 50.3369 59.2155 49.6493C59.2155 48.9617 58.6581 48.4042 57.9704 48.4042H28.0293C27.3417 48.4042 26.7842 48.9617 26.7842 49.6493C26.7842 50.3369 27.3417 50.8944 28.0293 50.8944Z" fill="#169B6D"/>
</g>
<defs>
<clipPath id="clip0_1556_1">
<rect width="85" height="85" fill="white" transform="translate(0.5)"/>
</clipPath>
</defs>
</svg>
