<svg width="250" height="52" viewBox="0 0 250 52" fill="none" xmlns="http://www.w3.org/2000/svg">
<path d="M45.3513 12.9991V38.9283L22.8964 51.8929V25.9638L45.3513 12.9991Z" fill="#5DD2A1"/>
<path d="M22.8965 25.9638L11.451 19.3498L33.9062 6.38513L45.3514 12.9991L22.8965 25.9638Z" fill="#98FFD7"/>
<path d="M33.9061 6.38513L11.451 19.3498L0.441284 12.9991L22.8964 0.0345459L33.9061 6.38513Z" fill="#5DD2A1"/>
<path d="M22.8964 25.9638V51.8929L0.441284 38.9283V12.9991L11.451 19.3498L22.8964 25.9638Z" fill="#98FFD7"/>
<g filter="url(#filter0_d_105_0)">
<path d="M55.3513 32.7137V13.8137H60.8323L64.9633 30.7697H65.3953L69.5263 13.8137H75.0073V32.7137H72.1723V15.8657H71.7403L67.6363 32.7137H62.7223L58.6183 15.8657H58.1863V32.7137H55.3513Z" fill="black"/>
<path d="M80.57 38.1137V35.6837H87.995C88.499 35.6837 88.7509 35.4137 88.7509 34.8737V30.7697H88.319C88.157 31.1297 87.905 31.4807 87.563 31.8227C87.239 32.1467 86.798 32.4167 86.24 32.6327C85.682 32.8487 84.98 32.9567 84.134 32.9567C83.126 32.9567 82.226 32.7317 81.434 32.2817C80.642 31.8317 80.021 31.1927 79.571 30.3647C79.121 29.5367 78.896 28.5557 78.896 27.4217V19.4027H81.677V27.2057C81.677 28.3577 81.965 29.2127 82.541 29.7707C83.117 30.3107 83.918 30.5807 84.944 30.5807C86.078 30.5807 86.987 30.2027 87.671 29.4467C88.373 28.6907 88.724 27.5927 88.724 26.1527V19.4027H91.505V35.4407C91.505 36.2507 91.262 36.8987 90.776 37.3847C90.308 37.8707 89.66 38.1137 88.832 38.1137H80.57Z" fill="black"/>
<path d="M100.044 32.7137V16.4597H94.2389V13.8137H108.765V16.4597H102.96V32.7137H100.044Z" fill="black"/>
<path d="M109.538 32.7137V19.4027H112.265V20.9687H112.697C112.913 20.4107 113.255 20.0057 113.723 19.7537C114.209 19.4837 114.803 19.3487 115.505 19.3487H117.098V21.8597H115.397C114.497 21.8597 113.759 22.1117 113.183 22.6157C112.607 23.1017 112.319 23.8577 112.319 24.8837V32.7137H109.538Z" fill="black"/>
<path d="M123.741 33.0917C122.787 33.0917 121.932 32.9297 121.176 32.6057C120.438 32.2817 119.844 31.8047 119.394 31.1747C118.962 30.5447 118.746 29.7797 118.746 28.8797C118.746 27.9617 118.962 27.2057 119.394 26.6117C119.844 25.9997 120.447 25.5407 121.203 25.2347C121.977 24.9287 122.85 24.7757 123.822 24.7757H127.872V23.9117C127.872 23.1377 127.638 22.5167 127.17 22.0487C126.702 21.5807 125.982 21.3467 125.01 21.3467C124.056 21.3467 123.327 21.5717 122.823 22.0217C122.319 22.4717 121.986 23.0567 121.824 23.7767L119.232 22.9397C119.448 22.2197 119.79 21.5717 120.258 20.9957C120.744 20.4017 121.383 19.9247 122.175 19.5647C122.967 19.2047 123.921 19.0247 125.037 19.0247C126.765 19.0247 128.124 19.4657 129.114 20.3477C130.104 21.2297 130.599 22.4807 130.599 24.1007V29.5817C130.599 30.1217 130.851 30.3917 131.355 30.3917H132.489V32.7137H130.41C129.78 32.7137 129.267 32.5517 128.871 32.2277C128.475 31.9037 128.277 31.4627 128.277 30.9047V30.8237H127.872C127.728 31.0937 127.512 31.4087 127.224 31.7687C126.936 32.1287 126.513 32.4437 125.955 32.7137C125.397 32.9657 124.659 33.0917 123.741 33.0917ZM124.146 30.7967C125.262 30.7967 126.162 30.4817 126.846 29.8517C127.53 29.2037 127.872 28.3217 127.872 27.2057V26.9357H123.984C123.246 26.9357 122.652 27.0977 122.202 27.4217C121.752 27.7277 121.527 28.1867 121.527 28.7987C121.527 29.4107 121.761 29.8967 122.229 30.2567C122.697 30.6167 123.336 30.7967 124.146 30.7967Z" fill="black"/>
<path d="M135.193 32.7137V19.4027H137.92V21.4007H138.352C138.604 20.8607 139.054 20.3567 139.702 19.8887C140.35 19.4207 141.313 19.1867 142.591 19.1867C143.599 19.1867 144.49 19.4117 145.264 19.8617C146.056 20.3117 146.677 20.9507 147.127 21.7787C147.577 22.5887 147.802 23.5697 147.802 24.7217V32.7137H145.021V24.9377C145.021 23.7857 144.733 22.9397 144.157 22.3997C143.581 21.8417 142.789 21.5627 141.781 21.5627C140.629 21.5627 139.702 21.9407 139 22.6967C138.316 23.4527 137.974 24.5507 137.974 25.9907V32.7137H135.193Z" fill="black"/>
<path d="M157.258 33.0917C155.566 33.0917 154.162 32.7137 153.046 31.9577C151.93 31.2017 151.246 30.0587 150.994 28.5287L153.586 27.9077C153.73 28.6457 153.973 29.2307 154.315 29.6627C154.657 30.0947 155.08 30.4007 155.584 30.5807C156.106 30.7607 156.664 30.8507 157.258 30.8507C158.14 30.8507 158.815 30.6797 159.283 30.3377C159.769 29.9957 160.012 29.5547 160.012 29.0147C160.012 28.4747 159.787 28.0787 159.337 27.8267C158.887 27.5747 158.221 27.3677 157.339 27.2057L156.421 27.0437C155.521 26.8817 154.702 26.6477 153.964 26.3417C153.226 26.0357 152.641 25.6127 152.209 25.0727C151.777 24.5327 151.561 23.8397 151.561 22.9937C151.561 21.7337 152.029 20.7617 152.965 20.0777C153.901 19.3757 155.143 19.0247 156.691 19.0247C158.185 19.0247 159.409 19.3667 160.363 20.0507C161.335 20.7167 161.965 21.6257 162.253 22.7777L159.661 23.5067C159.499 22.6967 159.157 22.1297 158.635 21.8057C158.113 21.4637 157.465 21.2927 156.691 21.2927C155.935 21.2927 155.341 21.4367 154.909 21.7247C154.477 21.9947 154.261 22.3817 154.261 22.8857C154.261 23.4257 154.468 23.8217 154.882 24.0737C155.314 24.3257 155.89 24.5147 156.61 24.6407L157.555 24.8027C158.509 24.9647 159.382 25.1897 160.174 25.4777C160.966 25.7657 161.587 26.1797 162.037 26.7197C162.505 27.2597 162.739 27.9797 162.739 28.8797C162.739 30.2117 162.244 31.2467 161.254 31.9847C160.264 32.7227 158.932 33.0917 157.258 33.0917Z" fill="black"/>
<path d="M165.99 38.1137V19.4027H168.717V21.3197H169.149C169.491 20.7257 170.004 20.1947 170.688 19.7267C171.39 19.2587 172.389 19.0247 173.685 19.0247C174.801 19.0247 175.818 19.2947 176.736 19.8347C177.672 20.3747 178.419 21.1577 178.977 22.1837C179.553 23.1917 179.841 24.4157 179.841 25.8557V26.2607C179.841 27.7007 179.562 28.9337 179.004 29.9597C178.446 30.9677 177.699 31.7417 176.763 32.2817C175.827 32.8217 174.801 33.0917 173.685 33.0917C172.821 33.0917 172.092 32.9837 171.498 32.7677C170.904 32.5517 170.427 32.2817 170.067 31.9577C169.707 31.6157 169.419 31.2647 169.203 30.9047H168.771V38.1137H165.99ZM172.875 30.6617C174.099 30.6617 175.098 30.2747 175.872 29.5007C176.646 28.7267 177.033 27.6197 177.033 26.1797V25.9367C177.033 24.5147 176.637 23.4167 175.845 22.6427C175.071 21.8687 174.081 21.4817 172.875 21.4817C171.687 21.4817 170.697 21.8687 169.905 22.6427C169.131 23.4167 168.744 24.5147 168.744 25.9367V26.1797C168.744 27.6197 169.131 28.7267 169.905 29.5007C170.697 30.2747 171.687 30.6617 172.875 30.6617Z" fill="black"/>
<path d="M189.524 33.0917C188.192 33.0917 187.004 32.8217 185.96 32.2817C184.934 31.7237 184.124 30.9317 183.53 29.9057C182.936 28.8797 182.639 27.6647 182.639 26.2607V25.8557C182.639 24.4517 182.936 23.2457 183.53 22.2377C184.124 21.2117 184.934 20.4197 185.96 19.8617C187.004 19.3037 188.192 19.0247 189.524 19.0247C190.856 19.0247 192.044 19.3037 193.088 19.8617C194.132 20.4197 194.951 21.2117 195.545 22.2377C196.139 23.2457 196.436 24.4517 196.436 25.8557V26.2607C196.436 27.6647 196.139 28.8797 195.545 29.9057C194.951 30.9317 194.132 31.7237 193.088 32.2817C192.044 32.8217 190.856 33.0917 189.524 33.0917ZM189.524 30.6077C190.748 30.6077 191.738 30.2207 192.494 29.4467C193.268 28.6547 193.655 27.5657 193.655 26.1797V25.9367C193.655 24.5507 193.277 23.4707 192.521 22.6967C191.765 21.9047 190.766 21.5087 189.524 21.5087C188.318 21.5087 187.328 21.9047 186.554 22.6967C185.798 23.4707 185.42 24.5507 185.42 25.9367V26.1797C185.42 27.5657 185.798 28.6547 186.554 29.4467C187.328 30.2207 188.318 30.6077 189.524 30.6077Z" fill="black"/>
<path d="M199.898 32.7137V19.4027H202.625V20.9687H203.057C203.273 20.4107 203.615 20.0057 204.083 19.7537C204.569 19.4837 205.163 19.3487 205.865 19.3487H207.458V21.8597H205.757C204.857 21.8597 204.119 22.1117 203.543 22.6157C202.967 23.1017 202.679 23.8577 202.679 24.8837V32.7137H199.898Z" fill="black"/>
<path d="M215.335 32.7137C214.525 32.7137 213.877 32.4707 213.391 31.9847C212.923 31.4987 212.689 30.8507 212.689 30.0407V21.7517H209.017V19.4027H212.689V15.0017H215.47V19.4027H219.439V21.7517H215.47V29.5547C215.47 30.0947 215.722 30.3647 216.226 30.3647H219.007V32.7137H215.335Z" fill="black"/>
<path d="M228.333 33.0917C226.983 33.0917 225.804 32.8127 224.796 32.2547C223.788 31.6787 222.996 30.8777 222.42 29.8517C221.862 28.8077 221.583 27.6017 221.583 26.2337V25.9097C221.583 24.5237 221.862 23.3177 222.42 22.2917C222.978 21.2477 223.752 20.4467 224.742 19.8887C225.75 19.3127 226.911 19.0247 228.225 19.0247C229.503 19.0247 230.619 19.3127 231.573 19.8887C232.545 20.4467 233.301 21.2297 233.841 22.2377C234.381 23.2457 234.651 24.4247 234.651 25.7747V26.8277H224.418C224.454 27.9977 224.841 28.9337 225.579 29.6357C226.335 30.3197 227.271 30.6617 228.387 30.6617C229.431 30.6617 230.214 30.4277 230.736 29.9597C231.276 29.4917 231.69 28.9517 231.978 28.3397L234.273 29.5277C234.021 30.0317 233.652 30.5627 233.166 31.1207C232.698 31.6787 232.077 32.1467 231.303 32.5247C230.529 32.9027 229.539 33.0917 228.333 33.0917ZM224.445 24.6947H231.816C231.744 23.6867 231.384 22.9037 230.736 22.3457C230.088 21.7697 229.242 21.4817 228.198 21.4817C227.154 21.4817 226.299 21.7697 225.633 22.3457C224.985 22.9037 224.589 23.6867 224.445 24.6947Z" fill="black"/>
<path d="M237.999 32.7137V19.4027H240.726V20.9687H241.158C241.374 20.4107 241.716 20.0057 242.184 19.7537C242.67 19.4837 243.264 19.3487 243.966 19.3487H245.559V21.8597H243.858C242.958 21.8597 242.22 22.1117 241.644 22.6157C241.068 23.1017 240.78 23.8577 240.78 24.8837V32.7137H237.999Z" fill="black"/>
</g>
<defs>
<filter id="filter0_d_105_0" x="51.3513" y="13.8137" width="198.208" height="32.3" filterUnits="userSpaceOnUse" color-interpolation-filters="sRGB">
<feFlood flood-opacity="0" result="BackgroundImageFix"/>
<feColorMatrix in="SourceAlpha" type="matrix" values="0 0 0 0 0 0 0 0 0 0 0 0 0 0 0 0 0 0 127 0" result="hardAlpha"/>
<feOffset dy="4"/>
<feGaussianBlur stdDeviation="2"/>
<feComposite in2="hardAlpha" operator="out"/>
<feColorMatrix type="matrix" values="0 0 0 0 0 0 0 0 0 0 0 0 0 0 0 0 0 0 0.25 0"/>
<feBlend mode="normal" in2="BackgroundImageFix" result="effect1_dropShadow_105_0"/>
<feBlend mode="normal" in="SourceGraphic" in2="effect1_dropShadow_105_0" result="shape"/>
</filter>
</defs>
</svg>
