<svg width="90" height="90" viewBox="0 0 90 90" fill="none" xmlns="http://www.w3.org/2000/svg">
<path d="M89.3311 24.7856L45.6494 0.17627C45.2451 -0.0522461 44.753 -0.0522461 44.3487 0.17627L18.5264 14.731C17.8936 15.0825 17.6651 15.8911 18.0166 16.5239C18.3682 17.1567 19.1768 17.3853 19.8096 17.0337L44.9991 2.83057L86.8877 26.438L85.2705 29.3208L45.6494 6.99658C45.2451 6.76807 44.753 6.76807 44.3487 6.99658L4.74514 29.3208L3.12795 26.438L14.4658 20.0396C15.0987 19.688 15.3272 18.8794 14.9756 18.2466C14.624 17.6138 13.8155 17.3853 13.1826 17.7368L0.667017 24.7856C0.0342047 25.1372 -0.194311 25.9458 0.157252 26.5786L3.07522 31.7642C3.251 32.063 3.53225 32.2915 3.86624 32.3794C4.20022 32.4673 4.56936 32.4321 4.86819 32.2564L7.62795 30.6919V69.6274H5.44827C4.72756 69.6274 4.12991 70.2251 4.12991 70.9458V76.8872C4.12991 77.6079 4.72756 78.2056 5.44827 78.2056H15.6787C16.3994 78.2056 16.9971 77.6079 16.9971 76.8872C16.9971 76.1665 16.3994 75.5689 15.6787 75.5689H6.76663V72.2642H15.7842C16.5049 72.2642 17.1026 71.6665 17.1026 70.9458C17.1026 70.2251 16.5049 69.6274 15.7842 69.6274H10.2823V29.1978L44.9991 9.66846L79.7158 29.2329V40.5708C79.7158 41.2915 80.3135 41.8892 81.0342 41.8892C81.7549 41.8892 82.3526 41.2915 82.3526 40.5708V30.7271L85.1123 32.2915C85.3057 32.397 85.5342 32.4673 85.7627 32.4673C85.8858 32.4673 86.0088 32.4497 86.1143 32.4146C86.4483 32.3267 86.7295 32.0981 86.9053 31.7993L89.8233 26.6138C90.1924 25.9458 89.9639 25.1548 89.3311 24.7856Z" fill="#169B6D"/>
<path d="M84.5508 69.6445H82.3535V46.5996C82.3535 45.8789 81.7559 45.2812 81.0352 45.2812C80.3145 45.2812 79.7168 45.8789 79.7168 46.5996V69.6445H74.0039C73.2832 69.6445 72.6855 70.2422 72.6855 70.9629C72.6855 71.6836 73.2832 72.2812 74.0039 72.2812H83.2324V75.5859H74.0039C73.2832 75.5859 72.6855 76.1836 72.6855 76.9043C72.6855 77.625 73.2832 78.2227 74.0039 78.2227H84.5508C85.2715 78.2227 85.8691 77.625 85.8691 76.9043V70.9629C85.8691 70.2422 85.2715 69.6445 84.5508 69.6445Z" fill="#169B6D"/>
<path d="M64.4766 61.2598C64.248 60.8555 63.8086 60.5918 63.334 60.5918H59.5898V55.8984C59.5898 55.1777 58.9922 54.5801 58.2715 54.5801H32.4316C31.7109 54.5801 31.1133 55.1777 31.1133 55.8984C31.1133 56.6191 31.7109 57.2168 32.4316 57.2168H56.9531V77.8711C54.6328 78.3809 52.7871 80.209 52.2773 82.5469H37.8281C37.2305 79.8047 34.7695 77.7305 31.834 77.7305C28.8984 77.7305 26.4551 79.8047 25.8398 82.5469H22.4121V57.2344H26.2617C26.9824 57.2344 27.5801 56.6367 27.5801 55.916C27.5801 55.1953 26.9824 54.5977 26.2617 54.5977H21.0938C20.373 54.5977 19.7754 55.1953 19.7754 55.916V83.8652C19.7754 84.5859 20.373 85.1836 21.0938 85.1836H25.8398C26.4375 87.9258 28.8984 90 31.834 90C34.7695 90 37.2305 87.9434 37.8281 85.1836H52.2773C52.875 87.9258 55.3359 90 58.2715 90C61.207 90 63.668 87.9434 64.2656 85.1836H68.9062C69.627 85.1836 70.2246 84.5859 70.2246 83.8652V71.6484C70.2246 71.4199 70.1719 71.1914 70.0488 70.998L64.4766 61.2598ZM31.834 87.3633C29.9004 87.3633 28.3359 85.7988 28.3359 83.8652C28.3359 81.9316 29.9004 80.3672 31.834 80.3672C33.7676 80.3672 35.332 81.9316 35.332 83.8652C35.332 85.7988 33.7676 87.3633 31.834 87.3633ZM59.5898 63.2461H62.5605L66.6211 70.3477H59.5898V63.2461ZM58.2715 87.3633C56.3379 87.3633 54.7734 85.7988 54.7734 83.8652C54.7734 81.9316 56.3379 80.3672 58.2715 80.3672C60.2051 80.3672 61.7695 81.9316 61.7695 83.8652C61.7695 85.7988 60.2051 87.3633 58.2715 87.3633ZM67.5879 82.5469H64.2832C63.7734 80.2266 61.9277 78.3809 59.6074 77.8711V72.9668H67.5879V82.5469Z" fill="#169B6D"/>
<path d="M31.2358 69.8906C31.2358 70.6113 31.8335 71.209 32.5542 71.209H43.6284L42.1167 72.7207C41.6069 73.2305 41.6069 74.0742 42.1167 74.584C42.3804 74.8477 42.7144 74.9707 43.0483 74.9707C43.3823 74.9707 43.7163 74.8477 43.98 74.584L47.7417 70.8223C47.9878 70.5762 48.1284 70.2422 48.1284 69.8906C48.1284 69.5391 47.9878 69.2051 47.7417 68.959L43.98 65.1973C43.4702 64.6875 42.6265 64.6875 42.1167 65.1973C41.6069 65.707 41.6069 66.5508 42.1167 67.0605L43.6284 68.5723H32.5542C31.8335 68.5723 31.2358 69.1699 31.2358 69.8906Z" fill="#169B6D"/>
<path d="M26.7007 48.5508V38.6543C26.7007 37.9336 26.103 37.3359 25.3823 37.3359H15.5034C14.7827 37.3359 14.1851 37.9336 14.1851 38.6543V48.5508C14.1851 49.2715 14.7827 49.8691 15.5034 49.8691H25.3823C26.1206 49.8691 26.7007 49.2715 26.7007 48.5508ZM24.064 47.2324H16.8218V39.9727H19.1245V41.2031C19.1245 41.9238 19.7222 42.5215 20.4429 42.5215C21.1636 42.5215 21.7612 41.9238 21.7612 41.2031V39.9727H24.064V47.2324Z" fill="#169B6D"/>
<path d="M30.5156 48.5508C30.5156 49.2715 31.1133 49.8691 31.834 49.8691H41.7129C42.4336 49.8691 43.0313 49.2715 43.0313 48.5508V38.6543C43.0313 37.9336 42.4336 37.3359 41.7129 37.3359H31.834C31.1133 37.3359 30.5156 37.9336 30.5156 38.6543V48.5508ZM33.1523 39.9727H35.4551V41.2031C35.4551 41.9238 36.0527 42.5215 36.7734 42.5215C37.4941 42.5215 38.0918 41.9238 38.0918 41.2031V39.9727H40.3945V47.2324H33.1523V39.9727Z" fill="#169B6D"/>
<path d="M46.8457 48.5508C46.8457 49.2715 47.4434 49.8691 48.1641 49.8691H58.043C58.7637 49.8691 59.3613 49.2715 59.3613 48.5508V38.6543C59.3613 37.9336 58.7637 37.3359 58.043 37.3359H48.1641C47.4434 37.3359 46.8457 37.9336 46.8457 38.6543V48.5508ZM49.4824 39.9727H51.7852V41.2031C51.7852 41.9238 52.3828 42.5215 53.1035 42.5215C53.8242 42.5215 54.4219 41.9238 54.4219 41.2031V39.9727H56.7246V47.2324H49.4824V39.9727Z" fill="#169B6D"/>
<path d="M64.4941 49.8691H74.373C75.0938 49.8691 75.6914 49.2715 75.6914 48.5508V38.6543C75.6914 37.9336 75.0938 37.3359 74.373 37.3359H64.4941C63.7734 37.3359 63.1758 37.9336 63.1758 38.6543V48.5508C63.1758 49.2715 63.7559 49.8691 64.4941 49.8691ZM65.8125 39.9727H68.1152V41.2031C68.1152 41.9238 68.7129 42.5215 69.4336 42.5215C70.1543 42.5215 70.752 41.9238 70.752 41.2031V39.9727H73.0547V47.2324H65.8125V39.9727Z" fill="#169B6D"/>
<path d="M31.834 33.9434H41.7129C42.4336 33.9434 43.0313 33.3457 43.0313 32.625V22.7285C43.0313 22.0078 42.4336 21.4102 41.7129 21.4102H31.834C31.1133 21.4102 30.5156 22.0078 30.5156 22.7285V32.625C30.5156 33.3633 31.0957 33.9434 31.834 33.9434ZM33.1523 24.0645H35.4551V25.2949C35.4551 26.0156 36.0527 26.6133 36.7734 26.6133C37.4941 26.6133 38.0918 26.0156 38.0918 25.2949V24.0645H40.3945V31.3242H33.1523V24.0645Z" fill="#169B6D"/>
<path d="M48.1641 33.9434H58.043C58.7637 33.9434 59.3613 33.3457 59.3613 32.625V22.7285C59.3613 22.0078 58.7637 21.4102 58.043 21.4102H48.1641C47.4434 21.4102 46.8457 22.0078 46.8457 22.7285V32.625C46.8457 33.3633 47.4258 33.9434 48.1641 33.9434ZM49.4824 24.0645H51.7852V25.2949C51.7852 26.0156 52.3828 26.6133 53.1035 26.6133C53.8242 26.6133 54.4219 26.0156 54.4219 25.2949V24.0645H56.7246V31.3242H49.4824V24.0645Z" fill="#169B6D"/>
</svg>
