<svg width="78" height="85" viewBox="0 0 78 85" fill="none" xmlns="http://www.w3.org/2000/svg">
<path d="M75.8003 63.75H74.273V1.41113C74.273 0.630859 73.5902 0 72.7456 0H5.27295C4.42842 0 3.74561 0.630859 3.74561 1.41113V63.75H2.21826C1.37373 63.75 0.690918 64.3809 0.690918 65.1611V72.25C0.690918 73.0303 1.37373 73.6611 2.21826 73.6611H8.34561V77.9111C8.34561 81.8291 11.7776 85 16.0183 85C20.2589 85 23.6909 81.8291 23.6909 77.9111V73.6611H54.3636V77.9111C54.3636 81.8291 57.7956 85 62.0363 85C66.2769 85 69.7089 81.8291 69.7089 77.9111V73.6611H75.8363C76.6808 73.6611 77.3636 73.0303 77.3636 72.25V65.1611C77.3277 64.3809 76.6448 63.75 75.8003 63.75ZM6.8003 2.83887H71.2003V63.75H69.673V56.6611C69.673 53.4238 67.948 50.3857 65.073 48.543V31.1611C65.073 27.2432 61.6409 24.0889 57.4003 24.0723V16.9834C57.4003 16.2031 56.7175 15.5723 55.873 15.5723C55.0284 15.5723 54.3456 16.2031 54.3456 16.9834V24.0723H22.1276V16.9834C22.1276 16.2031 21.4448 15.5723 20.6003 15.5723C19.7558 15.5723 19.073 16.2031 19.073 16.9834V24.2051C15.4972 24.8857 12.9456 27.7744 12.9456 31.1445V48.5264C10.0706 50.3691 8.34561 53.4072 8.34561 56.6445V63.75H6.81826V2.83887H6.8003ZM48.2003 59.5H29.8003V58.0889H48.2003V59.5ZM29.8003 62.3389H48.2003V63.75H29.8003V62.3389ZM51.273 56.6611C51.273 55.8809 50.5901 55.25 49.7456 55.25H28.273C27.4284 55.25 26.7456 55.8809 26.7456 56.6611V63.75H11.4183V56.6611C11.4183 52.7432 14.8503 49.5889 19.0909 49.5723H58.9636C63.2042 49.5723 66.6183 52.7432 66.6362 56.6611V63.75H51.3089V56.6611H51.273ZM20.6003 26.9111H57.4003C59.9339 26.9111 62.0003 28.8203 62.0003 31.1611V47.165C61.012 46.8828 59.9698 46.75 58.9277 46.7334H19.073C18.0308 46.7334 17.0065 46.8828 16.0003 47.165V31.1611C16.0003 28.8203 18.0667 26.9111 20.6003 26.9111ZM20.6003 77.9111C20.6003 80.252 18.5339 82.1611 16.0003 82.1611C13.4667 82.1611 11.4003 80.252 11.4003 77.9111V73.6611H20.6003V77.9111ZM66.6003 77.9111C66.6003 80.252 64.5339 82.1611 62.0003 82.1611C59.4667 82.1611 57.4003 80.252 57.4003 77.9111V73.6611H66.6003V77.9111ZM74.273 70.8389H3.72764V66.5889H74.255V70.8389H74.273Z" fill="#169B6D"/>
<path d="M19.0727 53.8389C16.5391 53.8389 14.4727 55.748 14.4727 58.0889C14.4727 60.4297 16.5391 62.3389 19.0727 62.3389C21.6063 62.3389 23.6727 60.4297 23.6727 58.0889C23.6727 55.748 21.6063 53.8389 19.0727 53.8389ZM19.0727 59.5C18.2281 59.5 17.5453 58.8691 17.5453 58.0889C17.5453 57.3086 18.2281 56.6777 19.0727 56.6777C19.9172 56.6777 20.6 57.3086 20.6 58.0889C20.6 58.8691 19.9172 59.5 19.0727 59.5Z" fill="#169B6D"/>
<path d="M58.9276 53.8389C56.394 53.8389 54.3276 55.748 54.3276 58.0889C54.3276 60.4297 56.394 62.3389 58.9276 62.3389C61.4612 62.3389 63.5276 60.4297 63.5276 58.0889C63.5276 55.748 61.4792 53.8389 58.9276 53.8389ZM58.9276 59.5C58.0831 59.5 57.4003 58.8691 57.4003 58.0889C57.4003 57.3086 58.0831 56.6777 58.9276 56.6777C59.7722 56.6777 60.455 57.3086 60.455 58.0889C60.455 58.8691 59.7722 59.5 58.9276 59.5Z" fill="#169B6D"/>
<path d="M20.6006 43.9111H57.4006C58.2451 43.9111 58.928 43.2803 58.928 42.5V31.1611C58.928 30.3809 58.2451 29.75 57.4006 29.75H20.6006C19.7561 29.75 19.0732 30.3809 19.0732 31.1611V42.5C19.0732 43.2803 19.7561 43.9111 20.6006 43.9111ZM22.1279 32.5889H55.8553V41.0889H22.1279V32.5889Z" fill="#169B6D"/>
</svg>
